<?xml version="1.0" standalone="no"?>
<!DOCTYPE svg PUBLIC "-//W3C//DTD SVG 20010904//EN"
 "http://www.w3.org/TR/2001/REC-SVG-20010904/DTD/svg10.dtd">
<svg version="1.0" xmlns="http://www.w3.org/2000/svg"
 width="290.000000pt" height="290.000000pt" viewBox="0 0 290.000000 290.000000"
 preserveAspectRatio="xMidYMid meet">
<metadata>
Created by potrace 1.11, written by Peter Selinger 2001-2013
</metadata>
<g transform="translate(0.000000,290.000000) scale(0.100000,-0.100000)"
fill="#000000" stroke="none">
<path d="M1315 2888 c-16 -5 -41 -11 -55 -14 -50 -10 -60 -16 -74 -42 -20 -38
-42 -61 -106 -108 -159 -117 -273 -186 -383 -229 -48 -19 -69 -33 -73 -49 -6
-26 -11 -123 -13 -284 -1 -138 2 -133 -91 -145 -25 -4 -56 -9 -70 -12 -14 -2
-45 -7 -70 -10 -127 -15 -300 -60 -324 -84 -14 -15 -16 -23 -7 -39 11 -21 71
-62 95 -66 7 -1 24 -9 37 -18 23 -15 23 -17 11 -52 -15 -41 -8 -74 34 -156 12
-24 21 -47 18 -51 -2 -3 5 -14 14 -23 17 -15 22 -14 74 14 38 21 59 27 63 20
4 -6 5 -12 4 -14 -2 -1 -19 -13 -36 -25 -40 -27 -45 -56 -9 -47 20 5 26 1 34
-24 l11 -30 42 15 c23 8 50 15 60 15 35 0 19 -18 -31 -35 -46 -15 -50 -19 -56
-56 -4 -21 -12 -43 -19 -49 -8 -6 -12 -22 -9 -35 2 -13 0 -27 -6 -30 -13 -8
-13 -45 0 -45 6 0 10 -11 10 -25 0 -14 -4 -25 -9 -25 -12 0 -23 -34 -27 -82
-2 -30 1 -38 15 -38 9 0 23 6 29 12 7 7 32 20 55 29 l42 17 0 53 c1 36 -4 58
-14 65 -12 10 -11 13 7 18 12 4 22 11 22 16 0 4 9 6 19 3 11 -3 37 1 58 8 44
14 103 20 103 10 0 -4 -24 -17 -54 -30 -30 -12 -62 -31 -72 -42 -17 -19 -17
-19 12 -18 55 3 59 -1 21 -27 -38 -26 -44 -43 -10 -29 10 4 25 9 33 10 8 1 29
6 45 9 56 13 71 13 83 0 19 -20 -20 -49 -66 -50 -42 0 -155 -50 -188 -82 -11
-11 -30 -23 -42 -26 -18 -6 -22 -3 -22 13 0 25 -25 28 -34 5 -8 -21 -8 -26 3
-20 10 7 6 -30 -7 -65 -9 -23 -8 -28 10 -32 11 -3 17 -10 14 -16 -4 -6 -2 -18
4 -28 9 -14 6 -29 -13 -72 -20 -43 -23 -59 -16 -80 6 -14 14 -28 19 -31 4 -3
11 -23 14 -44 4 -24 19 -53 41 -78 19 -21 36 -43 36 -48 1 -6 2 -14 3 -19 0
-5 4 -13 8 -17 5 -4 8 -15 8 -25 0 -19 52 -53 63 -42 7 6 17 -14 21 -44 3 -16
35 -32 126 -63 65 -21 102 -43 136 -80 21 -22 46 -40 56 -40 11 0 27 -4 37
-10 27 -14 142 -19 170 -6 18 8 26 7 35 -4 6 -8 31 -25 56 -38 38 -19 55 -22
105 -17 89 9 108 8 140 -9 17 -9 45 -16 63 -16 18 0 41 -5 51 -12 18 -11 24
-10 70 17 21 12 29 12 53 -1 16 -8 54 -16 86 -18 66 -4 84 4 186 82 45 35 75
51 86 47 10 -3 21 -1 25 4 3 6 25 19 48 30 49 22 91 60 112 100 12 25 34 42
57 45 14 2 80 99 106 154 14 31 32 63 39 70 7 7 13 17 13 21 0 4 8 16 18 27
29 34 43 63 47 103 2 21 10 55 19 75 12 28 13 43 5 58 -6 12 -8 40 -4 69 5 35
2 61 -11 94 -17 45 -17 47 4 74 l21 28 -24 36 c-25 36 -32 59 -41 142 -3 28
-13 65 -21 84 -19 41 -11 57 40 84 21 11 47 37 62 62 14 24 34 50 45 58 10 7
21 25 24 39 2 15 13 47 24 72 17 37 21 70 12 84 -2 2 -3 36 -1 52 1 9 41 29
119 60 33 13 62 44 62 67 0 7 -17 24 -37 37 -37 24 -66 31 -183 42 -30 2 -77
7 -105 10 -53 5 -123 11 -219 19 -33 2 -63 10 -67 16 -4 6 -7 99 -7 206 -1
174 -3 197 -19 215 -14 17 -64 45 -93 53 -3 1 -27 11 -53 23 -27 12 -60 25
-73 28 -13 3 -24 9 -24 13 0 3 -15 13 -32 21 -18 7 -42 22 -52 32 -11 10 -25
18 -30 18 -6 0 -24 11 -40 25 -31 26 -170 152 -190 171 -23 22 -83 32 -186 32
-58 0 -118 -5 -135 -10z"/>
</g>
</svg>
